<mxfile host="app.diagrams.net" agent="Mozilla/5.0 (Windows NT 10.0; Win64; x64) AppleWebKit/537.36 (KHTML, like Gecko) Chrome/129.0.0.0 Safari/537.36" version="24.7.17">
  <diagram name="第 1 页" id="-prV1_K6u-0FTYfRDy4U">
    <mxGraphModel dx="1235" dy="768" grid="0" gridSize="10" guides="1" tooltips="1" connect="1" arrows="1" fold="1" page="1" pageScale="1" pageWidth="827" pageHeight="1169" math="0" shadow="0">
      <root>
        <mxCell id="0" />
        <mxCell id="1" parent="0" />
        <mxCell id="Oh1gPlp_NcjatVWEgPo7-2" value="" style="rounded=0;whiteSpace=wrap;html=1;" parent="1" vertex="1">
          <mxGeometry x="1747.5" y="676" width="522" height="187" as="geometry" />
        </mxCell>
        <mxCell id="Oh1gPlp_NcjatVWEgPo7-1" value="" style="rounded=0;whiteSpace=wrap;html=1;" parent="1" vertex="1">
          <mxGeometry x="1747.5" y="502" width="522" height="154" as="geometry" />
        </mxCell>
        <mxCell id="X02W-XwFpn8-nhFI2tIT-246" value="系统设计" style="whiteSpace=wrap;strokeWidth=2;" parent="1" vertex="1">
          <mxGeometry x="810" y="812" width="79" height="33" as="geometry" />
        </mxCell>
        <mxCell id="X02W-XwFpn8-nhFI2tIT-247" value="功能需求分析" style="whiteSpace=wrap;strokeWidth=2;" parent="1" vertex="1">
          <mxGeometry x="978" y="229" width="113" height="33" as="geometry" />
        </mxCell>
        <mxCell id="X02W-XwFpn8-nhFI2tIT-248" value="互动学习" style="whiteSpace=wrap;strokeWidth=2;" parent="1" vertex="1">
          <mxGeometry x="1221" y="62" width="79" height="33" as="geometry" />
        </mxCell>
        <mxCell id="X02W-XwFpn8-nhFI2tIT-249" value="虚拟地形探索" style="whiteSpace=wrap;strokeWidth=2;" parent="1" vertex="1">
          <mxGeometry x="1399" y="20" width="112" height="33" as="geometry" />
        </mxCell>
        <mxCell id="X02W-XwFpn8-nhFI2tIT-250" value="虚拟考察场景" style="whiteSpace=wrap;strokeWidth=2;" parent="1" vertex="1">
          <mxGeometry x="1399" y="103" width="112" height="33" as="geometry" />
        </mxCell>
        <mxCell id="X02W-XwFpn8-nhFI2tIT-251" value="实验功能" style="whiteSpace=wrap;strokeWidth=2;" parent="1" vertex="1">
          <mxGeometry x="1221" y="229" width="79" height="33" as="geometry" />
        </mxCell>
        <mxCell id="X02W-XwFpn8-nhFI2tIT-252" value="地貌形成模拟" style="whiteSpace=wrap;strokeWidth=2;" parent="1" vertex="1">
          <mxGeometry x="1399" y="187" width="113" height="33" as="geometry" />
        </mxCell>
        <mxCell id="X02W-XwFpn8-nhFI2tIT-253" value="互动实验" style="whiteSpace=wrap;strokeWidth=2;" parent="1" vertex="1">
          <mxGeometry x="1415" y="270" width="80" height="33" as="geometry" />
        </mxCell>
        <mxCell id="X02W-XwFpn8-nhFI2tIT-254" value="测试评估功能" style="whiteSpace=wrap;strokeWidth=2;" parent="1" vertex="1">
          <mxGeometry x="1204" y="395" width="112" height="33" as="geometry" />
        </mxCell>
        <mxCell id="X02W-XwFpn8-nhFI2tIT-255" value="地理知识测验" style="whiteSpace=wrap;strokeWidth=2;" parent="1" vertex="1">
          <mxGeometry x="1399" y="354" width="113" height="33" as="geometry" />
        </mxCell>
        <mxCell id="X02W-XwFpn8-nhFI2tIT-256" value="成绩与进度管理" style="whiteSpace=wrap;strokeWidth=2;" parent="1" vertex="1">
          <mxGeometry x="1391" y="437" width="129" height="33" as="geometry" />
        </mxCell>
        <mxCell id="X02W-XwFpn8-nhFI2tIT-257" value="用户体验设计" style="whiteSpace=wrap;strokeWidth=2;" parent="1" vertex="1">
          <mxGeometry x="979" y="520" width="111" height="33" as="geometry" />
        </mxCell>
        <mxCell id="X02W-XwFpn8-nhFI2tIT-258" value="界面友好性" style="whiteSpace=wrap;strokeWidth=2;" parent="1" vertex="1">
          <mxGeometry x="1212" y="479" width="96" height="33" as="geometry" />
        </mxCell>
        <mxCell id="X02W-XwFpn8-nhFI2tIT-259" value="操作便捷性" style="whiteSpace=wrap;strokeWidth=2;" parent="1" vertex="1">
          <mxGeometry x="1212" y="562" width="97" height="33" as="geometry" />
        </mxCell>
        <mxCell id="X02W-XwFpn8-nhFI2tIT-260" value="总体框架设计" style="whiteSpace=wrap;strokeWidth=2;" parent="1" vertex="1">
          <mxGeometry x="979" y="812" width="112" height="33" as="geometry" />
        </mxCell>
        <mxCell id="X02W-XwFpn8-nhFI2tIT-261" value="主界面模块" style="whiteSpace=wrap;strokeWidth=2;" parent="1" vertex="1">
          <mxGeometry x="1213" y="646" width="95" height="33" as="geometry" />
        </mxCell>
        <mxCell id="X02W-XwFpn8-nhFI2tIT-262" value="三维地球场景模块" style="whiteSpace=wrap;strokeWidth=2;" parent="1" vertex="1">
          <mxGeometry x="1189" y="729" width="143" height="33" as="geometry" />
        </mxCell>
        <mxCell id="X02W-XwFpn8-nhFI2tIT-263" value="虚拟考察场景模块" style="whiteSpace=wrap;strokeWidth=2;" parent="1" vertex="1">
          <mxGeometry x="1188" y="812" width="144" height="33" as="geometry" />
        </mxCell>
        <mxCell id="X02W-XwFpn8-nhFI2tIT-264" value="实验功能模块" style="whiteSpace=wrap;strokeWidth=2;" parent="1" vertex="1">
          <mxGeometry x="1205" y="896" width="111" height="33" as="geometry" />
        </mxCell>
        <mxCell id="X02W-XwFpn8-nhFI2tIT-265" value="测试评估模块" style="whiteSpace=wrap;strokeWidth=2;" parent="1" vertex="1">
          <mxGeometry x="1204" y="979" width="112" height="33" as="geometry" />
        </mxCell>
        <mxCell id="X02W-XwFpn8-nhFI2tIT-266" value="具体功能设计" style="whiteSpace=wrap;strokeWidth=2;" parent="1" vertex="1">
          <mxGeometry x="979" y="1146" width="111" height="33" as="geometry" />
        </mxCell>
        <mxCell id="X02W-XwFpn8-nhFI2tIT-267" value="互动实验功能设计" style="whiteSpace=wrap;strokeWidth=2;" parent="1" vertex="1">
          <mxGeometry x="1189" y="1063" width="143" height="33" as="geometry" />
        </mxCell>
        <mxCell id="X02W-XwFpn8-nhFI2tIT-268" value="知识测验设计" style="whiteSpace=wrap;strokeWidth=2;" parent="1" vertex="1">
          <mxGeometry x="1204" y="1146" width="112" height="33" as="geometry" />
        </mxCell>
        <mxCell id="X02W-XwFpn8-nhFI2tIT-269" value="用户管理功能设计" style="whiteSpace=wrap;strokeWidth=2;" parent="1" vertex="1">
          <mxGeometry x="1189" y="1229" width="143" height="33" as="geometry" />
        </mxCell>
        <mxCell id="X02W-XwFpn8-nhFI2tIT-270" value="系统安全性与稳定性设计" style="whiteSpace=wrap;strokeWidth=2;" parent="1" vertex="1">
          <mxGeometry x="939" y="1396" width="191" height="33" as="geometry" />
        </mxCell>
        <mxCell id="X02W-XwFpn8-nhFI2tIT-271" value="数据加密与访问控制" style="whiteSpace=wrap;strokeWidth=2;" parent="1" vertex="1">
          <mxGeometry x="1180" y="1313" width="160" height="33" as="geometry" />
        </mxCell>
        <mxCell id="X02W-XwFpn8-nhFI2tIT-272" value="系统备份与恢复" style="whiteSpace=wrap;strokeWidth=2;" parent="1" vertex="1">
          <mxGeometry x="1196" y="1396" width="128" height="33" as="geometry" />
        </mxCell>
        <mxCell id="X02W-XwFpn8-nhFI2tIT-273" value="性能优化与压力测试" style="whiteSpace=wrap;strokeWidth=2;" parent="1" vertex="1">
          <mxGeometry x="1180" y="1480" width="161" height="33" as="geometry" />
        </mxCell>
        <mxCell id="X02W-XwFpn8-nhFI2tIT-274" value="" style="curved=1;startArrow=none;endArrow=block;exitX=0.52;exitY=0.01;entryX=0;entryY=0.49;rounded=0;" parent="1" source="X02W-XwFpn8-nhFI2tIT-246" target="X02W-XwFpn8-nhFI2tIT-247" edge="1">
          <mxGeometry relative="1" as="geometry">
            <Array as="points">
              <mxPoint x="914" y="245" />
            </Array>
          </mxGeometry>
        </mxCell>
        <mxCell id="X02W-XwFpn8-nhFI2tIT-275" value="" style="curved=1;startArrow=none;endArrow=block;exitX=0.61;exitY=-0.02;entryX=0;entryY=0.5;rounded=0;" parent="1" source="X02W-XwFpn8-nhFI2tIT-247" target="X02W-XwFpn8-nhFI2tIT-248" edge="1">
          <mxGeometry relative="1" as="geometry">
            <Array as="points">
              <mxPoint x="1155" y="78" />
            </Array>
          </mxGeometry>
        </mxCell>
        <mxCell id="X02W-XwFpn8-nhFI2tIT-276" value="" style="curved=1;startArrow=none;endArrow=block;exitX=1;exitY=0.02;entryX=0;entryY=0.51;rounded=0;" parent="1" source="X02W-XwFpn8-nhFI2tIT-248" target="X02W-XwFpn8-nhFI2tIT-249" edge="1">
          <mxGeometry relative="1" as="geometry">
            <Array as="points">
              <mxPoint x="1366" y="37" />
            </Array>
          </mxGeometry>
        </mxCell>
        <mxCell id="X02W-XwFpn8-nhFI2tIT-277" value="" style="curved=1;startArrow=none;endArrow=block;exitX=1;exitY=0.97;entryX=0;entryY=0.52;rounded=0;" parent="1" source="X02W-XwFpn8-nhFI2tIT-248" target="X02W-XwFpn8-nhFI2tIT-250" edge="1">
          <mxGeometry relative="1" as="geometry">
            <Array as="points">
              <mxPoint x="1366" y="120" />
            </Array>
          </mxGeometry>
        </mxCell>
        <mxCell id="X02W-XwFpn8-nhFI2tIT-278" value="" style="curved=1;startArrow=none;endArrow=block;exitX=1;exitY=0.49;entryX=0;entryY=0.49;rounded=0;" parent="1" source="X02W-XwFpn8-nhFI2tIT-247" target="X02W-XwFpn8-nhFI2tIT-251" edge="1">
          <mxGeometry relative="1" as="geometry">
            <Array as="points" />
          </mxGeometry>
        </mxCell>
        <mxCell id="X02W-XwFpn8-nhFI2tIT-279" value="" style="curved=1;startArrow=none;endArrow=block;exitX=1;exitY=0.02;entryX=0;entryY=0.5;rounded=0;" parent="1" source="X02W-XwFpn8-nhFI2tIT-251" target="X02W-XwFpn8-nhFI2tIT-252" edge="1">
          <mxGeometry relative="1" as="geometry">
            <Array as="points">
              <mxPoint x="1366" y="204" />
            </Array>
          </mxGeometry>
        </mxCell>
        <mxCell id="X02W-XwFpn8-nhFI2tIT-280" value="" style="curved=1;startArrow=none;endArrow=block;exitX=1;exitY=0.96;entryX=0;entryY=0.51;rounded=0;" parent="1" source="X02W-XwFpn8-nhFI2tIT-251" target="X02W-XwFpn8-nhFI2tIT-253" edge="1">
          <mxGeometry relative="1" as="geometry">
            <Array as="points">
              <mxPoint x="1366" y="287" />
            </Array>
          </mxGeometry>
        </mxCell>
        <mxCell id="X02W-XwFpn8-nhFI2tIT-281" value="" style="curved=1;startArrow=none;endArrow=block;exitX=0.61;exitY=1;entryX=0;entryY=0.52;rounded=0;" parent="1" source="X02W-XwFpn8-nhFI2tIT-247" target="X02W-XwFpn8-nhFI2tIT-254" edge="1">
          <mxGeometry relative="1" as="geometry">
            <Array as="points">
              <mxPoint x="1155" y="412" />
            </Array>
          </mxGeometry>
        </mxCell>
        <mxCell id="X02W-XwFpn8-nhFI2tIT-282" value="" style="curved=1;startArrow=none;endArrow=block;exitX=0.88;exitY=0.01;entryX=0;entryY=0.49;rounded=0;" parent="1" source="X02W-XwFpn8-nhFI2tIT-254" target="X02W-XwFpn8-nhFI2tIT-255" edge="1">
          <mxGeometry relative="1" as="geometry">
            <Array as="points">
              <mxPoint x="1366" y="370" />
            </Array>
          </mxGeometry>
        </mxCell>
        <mxCell id="X02W-XwFpn8-nhFI2tIT-283" value="" style="curved=1;startArrow=none;endArrow=block;exitX=0.88;exitY=1.02;entryX=0;entryY=0.51;rounded=0;" parent="1" source="X02W-XwFpn8-nhFI2tIT-254" target="X02W-XwFpn8-nhFI2tIT-256" edge="1">
          <mxGeometry relative="1" as="geometry">
            <Array as="points">
              <mxPoint x="1366" y="454" />
            </Array>
          </mxGeometry>
        </mxCell>
        <mxCell id="X02W-XwFpn8-nhFI2tIT-284" value="" style="curved=1;startArrow=none;endArrow=block;exitX=0.55;exitY=0.01;entryX=0;entryY=0.52;rounded=0;" parent="1" source="X02W-XwFpn8-nhFI2tIT-246" target="X02W-XwFpn8-nhFI2tIT-257" edge="1">
          <mxGeometry relative="1" as="geometry">
            <Array as="points">
              <mxPoint x="914" y="537" />
            </Array>
          </mxGeometry>
        </mxCell>
        <mxCell id="X02W-XwFpn8-nhFI2tIT-285" value="" style="curved=1;startArrow=none;endArrow=block;exitX=0.93;exitY=0.01;entryX=0;entryY=0.5;rounded=0;" parent="1" source="X02W-XwFpn8-nhFI2tIT-257" target="X02W-XwFpn8-nhFI2tIT-258" edge="1">
          <mxGeometry relative="1" as="geometry">
            <Array as="points">
              <mxPoint x="1155" y="495" />
            </Array>
          </mxGeometry>
        </mxCell>
        <mxCell id="X02W-XwFpn8-nhFI2tIT-286" value="" style="curved=1;startArrow=none;endArrow=block;exitX=0.93;exitY=1.02;entryX=0;entryY=0.51;rounded=0;" parent="1" source="X02W-XwFpn8-nhFI2tIT-257" target="X02W-XwFpn8-nhFI2tIT-259" edge="1">
          <mxGeometry relative="1" as="geometry">
            <Array as="points">
              <mxPoint x="1155" y="579" />
            </Array>
          </mxGeometry>
        </mxCell>
        <mxCell id="X02W-XwFpn8-nhFI2tIT-287" value="" style="curved=1;startArrow=none;endArrow=block;exitX=1;exitY=0.52;entryX=0;entryY=0.52;rounded=0;" parent="1" source="X02W-XwFpn8-nhFI2tIT-246" target="X02W-XwFpn8-nhFI2tIT-260" edge="1">
          <mxGeometry relative="1" as="geometry">
            <Array as="points" />
          </mxGeometry>
        </mxCell>
        <mxCell id="X02W-XwFpn8-nhFI2tIT-288" value="" style="curved=1;startArrow=none;endArrow=block;exitX=0.6;exitY=0.01;entryX=0;entryY=0.49;rounded=0;" parent="1" source="X02W-XwFpn8-nhFI2tIT-260" target="X02W-XwFpn8-nhFI2tIT-261" edge="1">
          <mxGeometry relative="1" as="geometry">
            <Array as="points">
              <mxPoint x="1155" y="662" />
            </Array>
          </mxGeometry>
        </mxCell>
        <mxCell id="X02W-XwFpn8-nhFI2tIT-289" value="" style="curved=1;startArrow=none;endArrow=block;exitX=0.71;exitY=0.01;entryX=0;entryY=0.5;rounded=0;" parent="1" source="X02W-XwFpn8-nhFI2tIT-260" target="X02W-XwFpn8-nhFI2tIT-262" edge="1">
          <mxGeometry relative="1" as="geometry">
            <Array as="points">
              <mxPoint x="1155" y="746" />
            </Array>
          </mxGeometry>
        </mxCell>
        <mxCell id="X02W-XwFpn8-nhFI2tIT-290" value="" style="curved=1;startArrow=none;endArrow=block;exitX=0.99;exitY=0.52;entryX=0;entryY=0.52;rounded=0;" parent="1" source="X02W-XwFpn8-nhFI2tIT-260" target="X02W-XwFpn8-nhFI2tIT-263" edge="1">
          <mxGeometry relative="1" as="geometry">
            <Array as="points" />
          </mxGeometry>
        </mxCell>
        <mxCell id="X02W-XwFpn8-nhFI2tIT-291" value="" style="curved=1;startArrow=none;endArrow=block;exitX=0.71;exitY=1.02;entryX=0;entryY=0.5;rounded=0;" parent="1" source="X02W-XwFpn8-nhFI2tIT-260" target="X02W-XwFpn8-nhFI2tIT-264" edge="1">
          <mxGeometry relative="1" as="geometry">
            <Array as="points">
              <mxPoint x="1155" y="912" />
            </Array>
          </mxGeometry>
        </mxCell>
        <mxCell id="X02W-XwFpn8-nhFI2tIT-292" value="" style="curved=1;startArrow=none;endArrow=block;exitX=0.6;exitY=1.02;entryX=0;entryY=0.51;rounded=0;" parent="1" source="X02W-XwFpn8-nhFI2tIT-260" target="X02W-XwFpn8-nhFI2tIT-265" edge="1">
          <mxGeometry relative="1" as="geometry">
            <Array as="points">
              <mxPoint x="1155" y="996" />
            </Array>
          </mxGeometry>
        </mxCell>
        <mxCell id="X02W-XwFpn8-nhFI2tIT-293" value="" style="curved=1;startArrow=none;endArrow=block;exitX=0.54;exitY=1.02;entryX=0;entryY=0.5;rounded=0;" parent="1" source="X02W-XwFpn8-nhFI2tIT-246" target="X02W-XwFpn8-nhFI2tIT-266" edge="1">
          <mxGeometry relative="1" as="geometry">
            <Array as="points">
              <mxPoint x="914" y="1163" />
            </Array>
          </mxGeometry>
        </mxCell>
        <mxCell id="X02W-XwFpn8-nhFI2tIT-294" value="" style="curved=1;startArrow=none;endArrow=block;exitX=0.72;exitY=0;entryX=0;entryY=0.49;rounded=0;" parent="1" source="X02W-XwFpn8-nhFI2tIT-266" target="X02W-XwFpn8-nhFI2tIT-267" edge="1">
          <mxGeometry relative="1" as="geometry">
            <Array as="points">
              <mxPoint x="1155" y="1079" />
            </Array>
          </mxGeometry>
        </mxCell>
        <mxCell id="X02W-XwFpn8-nhFI2tIT-295" value="" style="curved=1;startArrow=none;endArrow=block;exitX=1;exitY=0.5;entryX=0;entryY=0.5;rounded=0;" parent="1" source="X02W-XwFpn8-nhFI2tIT-266" target="X02W-XwFpn8-nhFI2tIT-268" edge="1">
          <mxGeometry relative="1" as="geometry">
            <Array as="points" />
          </mxGeometry>
        </mxCell>
        <mxCell id="X02W-XwFpn8-nhFI2tIT-296" value="" style="curved=1;startArrow=none;endArrow=block;exitX=0.72;exitY=1.01;entryX=0;entryY=0.52;rounded=0;" parent="1" source="X02W-XwFpn8-nhFI2tIT-266" target="X02W-XwFpn8-nhFI2tIT-269" edge="1">
          <mxGeometry relative="1" as="geometry">
            <Array as="points">
              <mxPoint x="1155" y="1246" />
            </Array>
          </mxGeometry>
        </mxCell>
        <mxCell id="X02W-XwFpn8-nhFI2tIT-297" value="" style="curved=1;startArrow=none;endArrow=block;exitX=0.52;exitY=1.02;entryX=0;entryY=0.51;rounded=0;" parent="1" source="X02W-XwFpn8-nhFI2tIT-246" target="X02W-XwFpn8-nhFI2tIT-270" edge="1">
          <mxGeometry relative="1" as="geometry">
            <Array as="points">
              <mxPoint x="914" y="1413" />
            </Array>
          </mxGeometry>
        </mxCell>
        <mxCell id="X02W-XwFpn8-nhFI2tIT-298" value="" style="curved=1;startArrow=none;endArrow=block;exitX=0.63;exitY=0;entryX=0;entryY=0.5;rounded=0;" parent="1" source="X02W-XwFpn8-nhFI2tIT-270" target="X02W-XwFpn8-nhFI2tIT-271" edge="1">
          <mxGeometry relative="1" as="geometry">
            <Array as="points">
              <mxPoint x="1155" y="1329" />
            </Array>
          </mxGeometry>
        </mxCell>
        <mxCell id="X02W-XwFpn8-nhFI2tIT-299" value="" style="curved=1;startArrow=none;endArrow=block;exitX=1;exitY=0.51;entryX=0;entryY=0.51;rounded=0;" parent="1" source="X02W-XwFpn8-nhFI2tIT-270" target="X02W-XwFpn8-nhFI2tIT-272" edge="1">
          <mxGeometry relative="1" as="geometry">
            <Array as="points" />
          </mxGeometry>
        </mxCell>
        <mxCell id="X02W-XwFpn8-nhFI2tIT-300" value="" style="curved=1;startArrow=none;endArrow=block;exitX=0.63;exitY=1.02;entryX=0;entryY=0.49;rounded=0;" parent="1" source="X02W-XwFpn8-nhFI2tIT-270" target="X02W-XwFpn8-nhFI2tIT-273" edge="1">
          <mxGeometry relative="1" as="geometry">
            <Array as="points">
              <mxPoint x="1155" y="1496" />
            </Array>
          </mxGeometry>
        </mxCell>
        <mxCell id="YhO-kmCt9V6vggGE06Bi-33" value="虚拟现实高中地理教学系统" style="whiteSpace=wrap;strokeWidth=2;" parent="1" vertex="1">
          <mxGeometry x="1441" y="1530" width="208" height="33" as="geometry" />
        </mxCell>
        <mxCell id="YhO-kmCt9V6vggGE06Bi-34" value="提升空间思维能力" style="whiteSpace=wrap;strokeWidth=2;" parent="1" vertex="1">
          <mxGeometry x="987" y="1613" width="143" height="33" as="geometry" />
        </mxCell>
        <mxCell id="YhO-kmCt9V6vggGE06Bi-35" value="增强实践能力" style="whiteSpace=wrap;strokeWidth=2;" parent="1" vertex="1">
          <mxGeometry x="1489" y="1613" width="112" height="33" as="geometry" />
        </mxCell>
        <mxCell id="YhO-kmCt9V6vggGE06Bi-36" value="激发探究精神" style="whiteSpace=wrap;strokeWidth=2;" parent="1" vertex="1">
          <mxGeometry x="1974" y="1613" width="112" height="33" as="geometry" />
        </mxCell>
        <mxCell id="YhO-kmCt9V6vggGE06Bi-37" value="空间性: 自由移动与探索" style="whiteSpace=wrap;strokeWidth=2;" parent="1" vertex="1">
          <mxGeometry x="966" y="1697" width="186" height="33" as="geometry" />
        </mxCell>
        <mxCell id="YhO-kmCt9V6vggGE06Bi-38" value="时间性: 模拟动态地理现象" style="whiteSpace=wrap;strokeWidth=2;" parent="1" vertex="1">
          <mxGeometry x="1443" y="1697" width="202" height="33" as="geometry" />
        </mxCell>
        <mxCell id="YhO-kmCt9V6vggGE06Bi-39" value="互动性: 与虚拟场景互动" style="whiteSpace=wrap;strokeWidth=2;" parent="1" vertex="1">
          <mxGeometry x="1937" y="1697" width="186" height="33" as="geometry" />
        </mxCell>
        <mxCell id="YhO-kmCt9V6vggGE06Bi-40" value="互动学习功能" style="whiteSpace=wrap;strokeWidth=2;" parent="1" vertex="1">
          <mxGeometry x="1003" y="1780" width="111" height="33" as="geometry" />
        </mxCell>
        <mxCell id="YhO-kmCt9V6vggGE06Bi-41" value="实验模拟功能" style="whiteSpace=wrap;strokeWidth=2;" parent="1" vertex="1">
          <mxGeometry x="1489" y="1780" width="111" height="33" as="geometry" />
        </mxCell>
        <mxCell id="YhO-kmCt9V6vggGE06Bi-42" value="测试评估功能" style="whiteSpace=wrap;strokeWidth=2;" parent="1" vertex="1">
          <mxGeometry x="1974" y="1780" width="112" height="33" as="geometry" />
        </mxCell>
        <mxCell id="YhO-kmCt9V6vggGE06Bi-43" value="学生选择学习内容" style="whiteSpace=wrap;strokeWidth=2;" parent="1" vertex="1">
          <mxGeometry x="810" y="1864" width="143" height="33" as="geometry" />
        </mxCell>
        <mxCell id="YhO-kmCt9V6vggGE06Bi-44" value="进行地形探索" style="whiteSpace=wrap;strokeWidth=2;" parent="1" vertex="1">
          <mxGeometry x="1003" y="1864" width="112" height="33" as="geometry" />
        </mxCell>
        <mxCell id="YhO-kmCt9V6vggGE06Bi-45" value="记录观察结果" style="whiteSpace=wrap;strokeWidth=2;" parent="1" vertex="1">
          <mxGeometry x="1165" y="1864" width="112" height="33" as="geometry" />
        </mxCell>
        <mxCell id="YhO-kmCt9V6vggGE06Bi-46" value="设置实验参数" style="whiteSpace=wrap;strokeWidth=2;" parent="1" vertex="1">
          <mxGeometry x="1327" y="1864" width="112" height="33" as="geometry" />
        </mxCell>
        <mxCell id="YhO-kmCt9V6vggGE06Bi-47" value="进行虚拟实验" style="whiteSpace=wrap;strokeWidth=2;" parent="1" vertex="1">
          <mxGeometry x="1488" y="1864" width="113" height="33" as="geometry" />
        </mxCell>
        <mxCell id="YhO-kmCt9V6vggGE06Bi-48" value="分析实验数据" style="whiteSpace=wrap;strokeWidth=2;" parent="1" vertex="1">
          <mxGeometry x="1651" y="1864" width="113" height="33" as="geometry" />
        </mxCell>
        <mxCell id="YhO-kmCt9V6vggGE06Bi-49" value="完成测试题目" style="whiteSpace=wrap;strokeWidth=2;" parent="1" vertex="1">
          <mxGeometry x="1814" y="1864" width="111" height="33" as="geometry" />
        </mxCell>
        <mxCell id="YhO-kmCt9V6vggGE06Bi-50" value="系统自动评估" style="whiteSpace=wrap;strokeWidth=2;" parent="1" vertex="1">
          <mxGeometry x="1975" y="1864" width="111" height="33" as="geometry" />
        </mxCell>
        <mxCell id="YhO-kmCt9V6vggGE06Bi-51" value="生成学习反馈" style="whiteSpace=wrap;strokeWidth=2;" parent="1" vertex="1">
          <mxGeometry x="2136" y="1864" width="112" height="33" as="geometry" />
        </mxCell>
        <mxCell id="YhO-kmCt9V6vggGE06Bi-52" value="" style="curved=1;startArrow=none;endArrow=block;exitX=0;exitY=0.78;entryX=0.5;entryY=0.01;rounded=0;" parent="1" source="YhO-kmCt9V6vggGE06Bi-33" target="YhO-kmCt9V6vggGE06Bi-34" edge="1">
          <mxGeometry relative="1" as="geometry">
            <Array as="points">
              <mxPoint x="1059" y="1588" />
            </Array>
          </mxGeometry>
        </mxCell>
        <mxCell id="YhO-kmCt9V6vggGE06Bi-53" value="" style="curved=1;startArrow=none;endArrow=block;exitX=0.5;exitY=1.01;entryX=0.5;entryY=0.01;rounded=0;" parent="1" source="YhO-kmCt9V6vggGE06Bi-33" target="YhO-kmCt9V6vggGE06Bi-35" edge="1">
          <mxGeometry relative="1" as="geometry">
            <Array as="points" />
          </mxGeometry>
        </mxCell>
        <mxCell id="YhO-kmCt9V6vggGE06Bi-54" value="" style="curved=1;startArrow=none;endArrow=block;exitX=1;exitY=0.78;entryX=0.5;entryY=0.01;rounded=0;" parent="1" source="YhO-kmCt9V6vggGE06Bi-33" target="YhO-kmCt9V6vggGE06Bi-36" edge="1">
          <mxGeometry relative="1" as="geometry">
            <Array as="points">
              <mxPoint x="2030" y="1588" />
            </Array>
          </mxGeometry>
        </mxCell>
        <mxCell id="YhO-kmCt9V6vggGE06Bi-55" value="" style="curved=1;startArrow=none;endArrow=block;exitX=0.5;exitY=1.02;entryX=0.5;entryY=-0.01;rounded=0;" parent="1" source="YhO-kmCt9V6vggGE06Bi-34" target="YhO-kmCt9V6vggGE06Bi-37" edge="1">
          <mxGeometry relative="1" as="geometry">
            <Array as="points" />
          </mxGeometry>
        </mxCell>
        <mxCell id="YhO-kmCt9V6vggGE06Bi-56" value="" style="curved=1;startArrow=none;endArrow=block;exitX=0.5;exitY=1.02;entryX=0.5;entryY=-0.01;rounded=0;" parent="1" source="YhO-kmCt9V6vggGE06Bi-35" target="YhO-kmCt9V6vggGE06Bi-38" edge="1">
          <mxGeometry relative="1" as="geometry">
            <Array as="points" />
          </mxGeometry>
        </mxCell>
        <mxCell id="YhO-kmCt9V6vggGE06Bi-57" value="" style="curved=1;startArrow=none;endArrow=block;exitX=0.5;exitY=1.02;entryX=0.5;entryY=-0.01;rounded=0;" parent="1" source="YhO-kmCt9V6vggGE06Bi-36" target="YhO-kmCt9V6vggGE06Bi-39" edge="1">
          <mxGeometry relative="1" as="geometry">
            <Array as="points" />
          </mxGeometry>
        </mxCell>
        <mxCell id="YhO-kmCt9V6vggGE06Bi-58" value="" style="curved=1;startArrow=none;endArrow=block;exitX=0.5;exitY=1.01;entryX=0.5;entryY=0.01;rounded=0;" parent="1" source="YhO-kmCt9V6vggGE06Bi-37" target="YhO-kmCt9V6vggGE06Bi-40" edge="1">
          <mxGeometry relative="1" as="geometry">
            <Array as="points" />
          </mxGeometry>
        </mxCell>
        <mxCell id="YhO-kmCt9V6vggGE06Bi-59" value="" style="curved=1;startArrow=none;endArrow=block;exitX=0.5;exitY=1.01;entryX=0.5;entryY=0.01;rounded=0;" parent="1" source="YhO-kmCt9V6vggGE06Bi-38" target="YhO-kmCt9V6vggGE06Bi-41" edge="1">
          <mxGeometry relative="1" as="geometry">
            <Array as="points" />
          </mxGeometry>
        </mxCell>
        <mxCell id="YhO-kmCt9V6vggGE06Bi-60" value="" style="curved=1;startArrow=none;endArrow=block;exitX=0.5;exitY=1.01;entryX=0.5;entryY=0.01;rounded=0;" parent="1" source="YhO-kmCt9V6vggGE06Bi-39" target="YhO-kmCt9V6vggGE06Bi-42" edge="1">
          <mxGeometry relative="1" as="geometry">
            <Array as="points" />
          </mxGeometry>
        </mxCell>
        <mxCell id="YhO-kmCt9V6vggGE06Bi-61" value="" style="curved=1;startArrow=none;endArrow=block;exitX=0;exitY=0.91;entryX=0.5;entryY=-0.01;rounded=0;" parent="1" source="YhO-kmCt9V6vggGE06Bi-40" target="YhO-kmCt9V6vggGE06Bi-43" edge="1">
          <mxGeometry relative="1" as="geometry">
            <Array as="points">
              <mxPoint x="882" y="1839" />
            </Array>
          </mxGeometry>
        </mxCell>
        <mxCell id="YhO-kmCt9V6vggGE06Bi-62" value="" style="curved=1;startArrow=none;endArrow=block;exitX=0.5;exitY=1.02;entryX=0.5;entryY=-0.01;rounded=0;" parent="1" source="YhO-kmCt9V6vggGE06Bi-40" target="YhO-kmCt9V6vggGE06Bi-44" edge="1">
          <mxGeometry relative="1" as="geometry">
            <Array as="points" />
          </mxGeometry>
        </mxCell>
        <mxCell id="YhO-kmCt9V6vggGE06Bi-63" value="" style="curved=1;startArrow=none;endArrow=block;exitX=1;exitY=0.95;entryX=0.5;entryY=-0.01;rounded=0;" parent="1" source="YhO-kmCt9V6vggGE06Bi-40" target="YhO-kmCt9V6vggGE06Bi-45" edge="1">
          <mxGeometry relative="1" as="geometry">
            <Array as="points">
              <mxPoint x="1221" y="1839" />
            </Array>
          </mxGeometry>
        </mxCell>
        <mxCell id="YhO-kmCt9V6vggGE06Bi-64" value="" style="curved=1;startArrow=none;endArrow=block;exitX=0;exitY=0.94;entryX=0.5;entryY=-0.01;rounded=0;" parent="1" source="YhO-kmCt9V6vggGE06Bi-41" target="YhO-kmCt9V6vggGE06Bi-46" edge="1">
          <mxGeometry relative="1" as="geometry">
            <Array as="points">
              <mxPoint x="1383" y="1839" />
            </Array>
          </mxGeometry>
        </mxCell>
        <mxCell id="YhO-kmCt9V6vggGE06Bi-65" value="" style="curved=1;startArrow=none;endArrow=block;exitX=0.5;exitY=1.02;entryX=0.5;entryY=-0.01;rounded=0;" parent="1" source="YhO-kmCt9V6vggGE06Bi-41" target="YhO-kmCt9V6vggGE06Bi-47" edge="1">
          <mxGeometry relative="1" as="geometry">
            <Array as="points" />
          </mxGeometry>
        </mxCell>
        <mxCell id="YhO-kmCt9V6vggGE06Bi-66" value="" style="curved=1;startArrow=none;endArrow=block;exitX=1;exitY=0.94;entryX=0.5;entryY=-0.01;rounded=0;" parent="1" source="YhO-kmCt9V6vggGE06Bi-41" target="YhO-kmCt9V6vggGE06Bi-48" edge="1">
          <mxGeometry relative="1" as="geometry">
            <Array as="points">
              <mxPoint x="1707" y="1839" />
            </Array>
          </mxGeometry>
        </mxCell>
        <mxCell id="YhO-kmCt9V6vggGE06Bi-67" value="" style="curved=1;startArrow=none;endArrow=block;exitX=0;exitY=0.95;entryX=0.5;entryY=-0.01;rounded=0;" parent="1" source="YhO-kmCt9V6vggGE06Bi-42" target="YhO-kmCt9V6vggGE06Bi-49" edge="1">
          <mxGeometry relative="1" as="geometry">
            <Array as="points">
              <mxPoint x="1869" y="1839" />
            </Array>
          </mxGeometry>
        </mxCell>
        <mxCell id="YhO-kmCt9V6vggGE06Bi-68" value="" style="curved=1;startArrow=none;endArrow=block;exitX=0.5;exitY=1.02;entryX=0.5;entryY=-0.01;rounded=0;" parent="1" source="YhO-kmCt9V6vggGE06Bi-42" target="YhO-kmCt9V6vggGE06Bi-50" edge="1">
          <mxGeometry relative="1" as="geometry">
            <Array as="points" />
          </mxGeometry>
        </mxCell>
        <mxCell id="YhO-kmCt9V6vggGE06Bi-69" value="" style="curved=1;startArrow=none;endArrow=block;exitX=1;exitY=0.95;entryX=0.5;entryY=-0.01;rounded=0;" parent="1" source="YhO-kmCt9V6vggGE06Bi-42" target="YhO-kmCt9V6vggGE06Bi-51" edge="1">
          <mxGeometry relative="1" as="geometry">
            <Array as="points">
              <mxPoint x="2192" y="1839" />
            </Array>
          </mxGeometry>
        </mxCell>
        <mxCell id="YhO-kmCt9V6vggGE06Bi-70" value="虚拟现实高中地理教学系统" style="whiteSpace=wrap;strokeWidth=2;" parent="1" vertex="1">
          <mxGeometry x="1485" y="1920" width="208" height="33" as="geometry" />
        </mxCell>
        <mxCell id="YhO-kmCt9V6vggGE06Bi-71" value="提升空间思维能力" style="whiteSpace=wrap;strokeWidth=2;" parent="1" vertex="1">
          <mxGeometry x="1249" y="2003" width="143" height="33" as="geometry" />
        </mxCell>
        <mxCell id="YhO-kmCt9V6vggGE06Bi-72" value="增强实践能力" style="whiteSpace=wrap;strokeWidth=2;" parent="1" vertex="1">
          <mxGeometry x="1533" y="2003" width="112" height="33" as="geometry" />
        </mxCell>
        <mxCell id="YhO-kmCt9V6vggGE06Bi-73" value="激发探究精神" style="whiteSpace=wrap;strokeWidth=2;" parent="1" vertex="1">
          <mxGeometry x="1794" y="2003" width="112" height="33" as="geometry" />
        </mxCell>
        <mxCell id="YhO-kmCt9V6vggGE06Bi-74" value="空间性: 自由探索地理空间" style="whiteSpace=wrap;strokeWidth=2;" parent="1" vertex="1">
          <mxGeometry x="1220" y="2087" width="202" height="33" as="geometry" />
        </mxCell>
        <mxCell id="YhO-kmCt9V6vggGE06Bi-75" value="时间性: 模拟地理现象动态变化" style="whiteSpace=wrap;strokeWidth=2;" parent="1" vertex="1">
          <mxGeometry x="1472" y="2087" width="234" height="33" as="geometry" />
        </mxCell>
        <mxCell id="YhO-kmCt9V6vggGE06Bi-76" value="互动性: 增强学生参与感" style="whiteSpace=wrap;strokeWidth=2;" parent="1" vertex="1">
          <mxGeometry x="1756" y="2087" width="186" height="33" as="geometry" />
        </mxCell>
        <mxCell id="YhO-kmCt9V6vggGE06Bi-77" value="互动学习功能" style="whiteSpace=wrap;strokeWidth=2;" parent="1" vertex="1">
          <mxGeometry x="1265" y="2170" width="111" height="33" as="geometry" />
        </mxCell>
        <mxCell id="YhO-kmCt9V6vggGE06Bi-78" value="实验模拟功能" style="whiteSpace=wrap;strokeWidth=2;" parent="1" vertex="1">
          <mxGeometry x="1533" y="2170" width="111" height="33" as="geometry" />
        </mxCell>
        <mxCell id="YhO-kmCt9V6vggGE06Bi-79" value="测试评估功能" style="whiteSpace=wrap;strokeWidth=2;" parent="1" vertex="1">
          <mxGeometry x="1794" y="2170" width="112" height="33" as="geometry" />
        </mxCell>
        <mxCell id="YhO-kmCt9V6vggGE06Bi-80" value="选择学习内容" style="whiteSpace=wrap;strokeWidth=2;" parent="1" vertex="1">
          <mxGeometry x="1265" y="2254" width="112" height="33" as="geometry" />
        </mxCell>
        <mxCell id="YhO-kmCt9V6vggGE06Bi-81" value="进行地形探索" style="whiteSpace=wrap;strokeWidth=2;" parent="1" vertex="1">
          <mxGeometry x="1265" y="2337" width="112" height="33" as="geometry" />
        </mxCell>
        <mxCell id="YhO-kmCt9V6vggGE06Bi-82" value="记录观察结果" style="whiteSpace=wrap;strokeWidth=2;" parent="1" vertex="1">
          <mxGeometry x="1265" y="2420" width="112" height="33" as="geometry" />
        </mxCell>
        <mxCell id="YhO-kmCt9V6vggGE06Bi-83" value="设置实验参数" style="whiteSpace=wrap;strokeWidth=2;" parent="1" vertex="1">
          <mxGeometry x="1533" y="2254" width="112" height="33" as="geometry" />
        </mxCell>
        <mxCell id="YhO-kmCt9V6vggGE06Bi-84" value="进行虚拟实验" style="whiteSpace=wrap;strokeWidth=2;" parent="1" vertex="1">
          <mxGeometry x="1533" y="2337" width="113" height="33" as="geometry" />
        </mxCell>
        <mxCell id="YhO-kmCt9V6vggGE06Bi-85" value="分析实验数据" style="whiteSpace=wrap;strokeWidth=2;" parent="1" vertex="1">
          <mxGeometry x="1533" y="2420" width="113" height="33" as="geometry" />
        </mxCell>
        <mxCell id="YhO-kmCt9V6vggGE06Bi-86" value="完成测试题目" style="whiteSpace=wrap;strokeWidth=2;" parent="1" vertex="1">
          <mxGeometry x="1794" y="2254" width="111" height="33" as="geometry" />
        </mxCell>
        <mxCell id="YhO-kmCt9V6vggGE06Bi-87" value="系统自动评估" style="whiteSpace=wrap;strokeWidth=2;" parent="1" vertex="1">
          <mxGeometry x="1794" y="2337" width="111" height="33" as="geometry" />
        </mxCell>
        <mxCell id="YhO-kmCt9V6vggGE06Bi-88" value="生成学习反馈" style="whiteSpace=wrap;strokeWidth=2;" parent="1" vertex="1">
          <mxGeometry x="1794" y="2420" width="112" height="33" as="geometry" />
        </mxCell>
        <mxCell id="YhO-kmCt9V6vggGE06Bi-89" value="" style="curved=1;startArrow=none;endArrow=block;exitX=0;exitY=1;entryX=0.5;entryY=0.01;rounded=0;" parent="1" source="YhO-kmCt9V6vggGE06Bi-70" target="YhO-kmCt9V6vggGE06Bi-71" edge="1">
          <mxGeometry relative="1" as="geometry">
            <Array as="points">
              <mxPoint x="1321" y="1978" />
            </Array>
          </mxGeometry>
        </mxCell>
        <mxCell id="YhO-kmCt9V6vggGE06Bi-90" value="" style="curved=1;startArrow=none;endArrow=block;exitX=0.5;exitY=1.01;entryX=0.5;entryY=0.01;rounded=0;" parent="1" source="YhO-kmCt9V6vggGE06Bi-70" target="YhO-kmCt9V6vggGE06Bi-72" edge="1">
          <mxGeometry relative="1" as="geometry">
            <Array as="points" />
          </mxGeometry>
        </mxCell>
        <mxCell id="YhO-kmCt9V6vggGE06Bi-91" value="" style="curved=1;startArrow=none;endArrow=block;exitX=1;exitY=1.01;entryX=0.5;entryY=0.01;rounded=0;" parent="1" source="YhO-kmCt9V6vggGE06Bi-70" target="YhO-kmCt9V6vggGE06Bi-73" edge="1">
          <mxGeometry relative="1" as="geometry">
            <Array as="points">
              <mxPoint x="1849" y="1978" />
            </Array>
          </mxGeometry>
        </mxCell>
        <mxCell id="YhO-kmCt9V6vggGE06Bi-92" value="" style="curved=1;startArrow=none;endArrow=block;exitX=0.5;exitY=1.02;entryX=0.5;entryY=-0.01;rounded=0;" parent="1" source="YhO-kmCt9V6vggGE06Bi-71" target="YhO-kmCt9V6vggGE06Bi-74" edge="1">
          <mxGeometry relative="1" as="geometry">
            <Array as="points" />
          </mxGeometry>
        </mxCell>
        <mxCell id="YhO-kmCt9V6vggGE06Bi-93" value="" style="curved=1;startArrow=none;endArrow=block;exitX=0.5;exitY=1.02;entryX=0.5;entryY=-0.01;rounded=0;" parent="1" source="YhO-kmCt9V6vggGE06Bi-72" target="YhO-kmCt9V6vggGE06Bi-75" edge="1">
          <mxGeometry relative="1" as="geometry">
            <Array as="points" />
          </mxGeometry>
        </mxCell>
        <mxCell id="YhO-kmCt9V6vggGE06Bi-94" value="" style="curved=1;startArrow=none;endArrow=block;exitX=0.5;exitY=1.02;entryX=0.5;entryY=-0.01;rounded=0;" parent="1" source="YhO-kmCt9V6vggGE06Bi-73" target="YhO-kmCt9V6vggGE06Bi-76" edge="1">
          <mxGeometry relative="1" as="geometry">
            <Array as="points" />
          </mxGeometry>
        </mxCell>
        <mxCell id="YhO-kmCt9V6vggGE06Bi-95" value="" style="curved=1;startArrow=none;endArrow=block;exitX=0.5;exitY=1.01;entryX=0.5;entryY=0.01;rounded=0;" parent="1" source="YhO-kmCt9V6vggGE06Bi-74" target="YhO-kmCt9V6vggGE06Bi-77" edge="1">
          <mxGeometry relative="1" as="geometry">
            <Array as="points" />
          </mxGeometry>
        </mxCell>
        <mxCell id="YhO-kmCt9V6vggGE06Bi-96" value="" style="curved=1;startArrow=none;endArrow=block;exitX=0.5;exitY=1.01;entryX=0.5;entryY=0.01;rounded=0;" parent="1" source="YhO-kmCt9V6vggGE06Bi-75" target="YhO-kmCt9V6vggGE06Bi-78" edge="1">
          <mxGeometry relative="1" as="geometry">
            <Array as="points" />
          </mxGeometry>
        </mxCell>
        <mxCell id="YhO-kmCt9V6vggGE06Bi-97" value="" style="curved=1;startArrow=none;endArrow=block;exitX=0.5;exitY=1.01;entryX=0.5;entryY=0.01;rounded=0;" parent="1" source="YhO-kmCt9V6vggGE06Bi-76" target="YhO-kmCt9V6vggGE06Bi-79" edge="1">
          <mxGeometry relative="1" as="geometry">
            <Array as="points" />
          </mxGeometry>
        </mxCell>
        <mxCell id="YhO-kmCt9V6vggGE06Bi-98" value="" style="curved=1;startArrow=none;endArrow=block;exitX=0.5;exitY=1.02;entryX=0.5;entryY=-0.01;rounded=0;" parent="1" source="YhO-kmCt9V6vggGE06Bi-77" target="YhO-kmCt9V6vggGE06Bi-80" edge="1">
          <mxGeometry relative="1" as="geometry">
            <Array as="points" />
          </mxGeometry>
        </mxCell>
        <mxCell id="YhO-kmCt9V6vggGE06Bi-99" value="" style="curved=1;startArrow=none;endArrow=block;exitX=0.5;exitY=1;entryX=0.5;entryY=0;rounded=0;" parent="1" source="YhO-kmCt9V6vggGE06Bi-80" target="YhO-kmCt9V6vggGE06Bi-81" edge="1">
          <mxGeometry relative="1" as="geometry">
            <Array as="points" />
          </mxGeometry>
        </mxCell>
        <mxCell id="YhO-kmCt9V6vggGE06Bi-100" value="" style="curved=1;startArrow=none;endArrow=block;exitX=0.5;exitY=1.01;entryX=0.5;entryY=0.01;rounded=0;" parent="1" source="YhO-kmCt9V6vggGE06Bi-81" target="YhO-kmCt9V6vggGE06Bi-82" edge="1">
          <mxGeometry relative="1" as="geometry">
            <Array as="points" />
          </mxGeometry>
        </mxCell>
        <mxCell id="YhO-kmCt9V6vggGE06Bi-101" value="" style="curved=1;startArrow=none;endArrow=block;exitX=0.5;exitY=1.02;entryX=0.5;entryY=-0.01;rounded=0;" parent="1" source="YhO-kmCt9V6vggGE06Bi-78" target="YhO-kmCt9V6vggGE06Bi-83" edge="1">
          <mxGeometry relative="1" as="geometry">
            <Array as="points" />
          </mxGeometry>
        </mxCell>
        <mxCell id="YhO-kmCt9V6vggGE06Bi-102" value="" style="curved=1;startArrow=none;endArrow=block;exitX=0.5;exitY=1;entryX=0.5;entryY=0;rounded=0;" parent="1" source="YhO-kmCt9V6vggGE06Bi-83" target="YhO-kmCt9V6vggGE06Bi-84" edge="1">
          <mxGeometry relative="1" as="geometry">
            <Array as="points" />
          </mxGeometry>
        </mxCell>
        <mxCell id="YhO-kmCt9V6vggGE06Bi-103" value="" style="curved=1;startArrow=none;endArrow=block;exitX=0.5;exitY=1.01;entryX=0.5;entryY=0.01;rounded=0;" parent="1" source="YhO-kmCt9V6vggGE06Bi-84" target="YhO-kmCt9V6vggGE06Bi-85" edge="1">
          <mxGeometry relative="1" as="geometry">
            <Array as="points" />
          </mxGeometry>
        </mxCell>
        <mxCell id="YhO-kmCt9V6vggGE06Bi-104" value="" style="curved=1;startArrow=none;endArrow=block;exitX=0.5;exitY=1.02;entryX=0.5;entryY=-0.01;rounded=0;" parent="1" source="YhO-kmCt9V6vggGE06Bi-79" target="YhO-kmCt9V6vggGE06Bi-86" edge="1">
          <mxGeometry relative="1" as="geometry">
            <Array as="points" />
          </mxGeometry>
        </mxCell>
        <mxCell id="YhO-kmCt9V6vggGE06Bi-105" value="" style="curved=1;startArrow=none;endArrow=block;exitX=0.5;exitY=1;entryX=0.5;entryY=0;rounded=0;" parent="1" source="YhO-kmCt9V6vggGE06Bi-86" target="YhO-kmCt9V6vggGE06Bi-87" edge="1">
          <mxGeometry relative="1" as="geometry">
            <Array as="points" />
          </mxGeometry>
        </mxCell>
        <mxCell id="YhO-kmCt9V6vggGE06Bi-106" value="" style="curved=1;startArrow=none;endArrow=block;exitX=0.5;exitY=1.01;entryX=0.5;entryY=0.01;rounded=0;" parent="1" source="YhO-kmCt9V6vggGE06Bi-87" target="YhO-kmCt9V6vggGE06Bi-88" edge="1">
          <mxGeometry relative="1" as="geometry">
            <Array as="points" />
          </mxGeometry>
        </mxCell>
        <mxCell id="YhO-kmCt9V6vggGE06Bi-107" value="&lt;font style=&quot;font-size: 25px;&quot;&gt;高中地理教学系统&lt;/font&gt;" style="rounded=0;whiteSpace=wrap;html=1;fillColor=#f5f5f5;fontColor=#333333;strokeColor=#000000;spacing=32;spacingTop=0;spacingLeft=0;verticalAlign=middle;fontSize=25;" parent="1" vertex="1">
          <mxGeometry x="1848.5" y="413" width="320" height="40" as="geometry" />
        </mxCell>
        <mxCell id="YhO-kmCt9V6vggGE06Bi-126" value="" style="shape=singleArrow;direction=south;whiteSpace=wrap;html=1;arrowWidth=0.3866678873697917;arrowSize=0.42548953785615806;fillColor=#f5f5f5;fontColor=#333333;strokeColor=#666666;" parent="1" vertex="1">
          <mxGeometry x="1993.5" y="457" width="41" height="41" as="geometry" />
        </mxCell>
        <mxCell id="YhO-kmCt9V6vggGE06Bi-151" value="实验模拟" style="rounded=0;whiteSpace=wrap;html=1;fillColor=#B3B3B3;strokeColor=#36393d;fontSize=16;" parent="1" vertex="1">
          <mxGeometry x="1952.5" y="698" width="106" height="39" as="geometry" />
        </mxCell>
        <mxCell id="YhO-kmCt9V6vggGE06Bi-152" value="测试评估" style="rounded=0;whiteSpace=wrap;html=1;fillColor=#B3B3B3;strokeColor=#36393d;fontSize=16;" parent="1" vertex="1">
          <mxGeometry x="2135.5" y="698" width="106" height="39" as="geometry" />
        </mxCell>
        <mxCell id="YhO-kmCt9V6vggGE06Bi-153" value="" style="shape=singleArrow;whiteSpace=wrap;html=1;fillColor=#f5f5f5;fontColor=#333333;strokeColor=#666666;" parent="1" vertex="1">
          <mxGeometry x="1888.5" y="707.75" width="43" height="19.5" as="geometry" />
        </mxCell>
        <mxCell id="YhO-kmCt9V6vggGE06Bi-154" value="" style="shape=singleArrow;whiteSpace=wrap;html=1;fillColor=#f5f5f5;fontColor=#333333;strokeColor=#666666;" parent="1" vertex="1">
          <mxGeometry x="2073" y="707.75" width="42.5" height="19.5" as="geometry" />
        </mxCell>
        <mxCell id="YhO-kmCt9V6vggGE06Bi-155" value="进行地形探索" style="rounded=0;whiteSpace=wrap;html=1;fillColor=#f5f5f5;fontColor=#333333;strokeColor=#666666;fontSize=13;textDirection=vertical-lr;" parent="1" vertex="1">
          <mxGeometry x="1774.5" y="748" width="30" height="100" as="geometry" />
        </mxCell>
        <mxCell id="YhO-kmCt9V6vggGE06Bi-156" value="记录观察结果" style="rounded=0;whiteSpace=wrap;html=1;fillColor=#f5f5f5;fontColor=#333333;strokeColor=#666666;fontSize=13;textDirection=vertical-lr;" parent="1" vertex="1">
          <mxGeometry x="1822.5" y="748" width="30" height="100" as="geometry" />
        </mxCell>
        <mxCell id="YhO-kmCt9V6vggGE06Bi-160" value="互动学习" style="rounded=0;whiteSpace=wrap;html=1;fillColor=#B3B3B3;strokeColor=#000000;fontSize=16;" parent="1" vertex="1">
          <mxGeometry x="1760.5" y="698" width="106" height="39" as="geometry" />
        </mxCell>
        <mxCell id="YhO-kmCt9V6vggGE06Bi-162" value="设置实验参数" style="rounded=0;whiteSpace=wrap;html=1;fillColor=#f5f5f5;fontColor=#333333;strokeColor=#666666;textDirection=vertical-lr;fontSize=13;" parent="1" vertex="1">
          <mxGeometry x="1965.5" y="748" width="30" height="100" as="geometry" />
        </mxCell>
        <mxCell id="YhO-kmCt9V6vggGE06Bi-163" value="进行虚拟实验" style="rounded=0;whiteSpace=wrap;html=1;fillColor=#f5f5f5;fontColor=#333333;strokeColor=#666666;textDirection=vertical-lr;fontSize=13;" parent="1" vertex="1">
          <mxGeometry x="2013.5" y="748" width="30" height="100" as="geometry" />
        </mxCell>
        <mxCell id="YhO-kmCt9V6vggGE06Bi-164" value="在线测试" style="rounded=0;whiteSpace=wrap;html=1;fillColor=#f5f5f5;fontColor=#333333;strokeColor=#666666;textDirection=vertical-lr;fontSize=13;" parent="1" vertex="1">
          <mxGeometry x="2150.5" y="748" width="30" height="100" as="geometry" />
        </mxCell>
        <mxCell id="YhO-kmCt9V6vggGE06Bi-165" value="及时反馈" style="rounded=0;whiteSpace=wrap;html=1;fillColor=#f5f5f5;fontColor=#333333;strokeColor=#666666;textDirection=vertical-lr;fontSize=13;" parent="1" vertex="1">
          <mxGeometry x="2198.5" y="748" width="30" height="100" as="geometry" />
        </mxCell>
        <mxCell id="YhO-kmCt9V6vggGE06Bi-166" value="" style="rounded=0;whiteSpace=wrap;html=1;fillColor=#f5f5f5;strokeColor=#666666;fontColor=#333333;dashed=1;" parent="1" vertex="1">
          <mxGeometry x="1756" y="913" width="490" height="80" as="geometry" />
        </mxCell>
        <mxCell id="YhO-kmCt9V6vggGE06Bi-167" value="&lt;span style=&quot;color: rgb(0, 0, 0); font-size: 13px;&quot;&gt;提升空间思维能力&lt;/span&gt;" style="rounded=0;whiteSpace=wrap;html=1;fillColor=#B3B3B3;strokeColor=#36393d;" parent="1" vertex="1">
          <mxGeometry x="1782.5" y="934.25" width="106" height="39" as="geometry" />
        </mxCell>
        <mxCell id="YhO-kmCt9V6vggGE06Bi-168" value="&lt;font style=&quot;font-size: 13px;&quot;&gt;&lt;span style=&quot;color: rgb(0, 0, 0); font-family: Helvetica; font-style: normal; font-variant-ligatures: normal; font-variant-caps: normal; font-weight: 400; letter-spacing: normal; orphans: 2; text-align: center; text-indent: 0px; text-transform: none; widows: 2; word-spacing: 0px; -webkit-text-stroke-width: 0px; white-space: normal; text-decoration-thickness: initial; text-decoration-style: initial; text-decoration-color: initial; float: none; font-size: 13px; display: inline !important;&quot;&gt;增强实践能力&lt;/span&gt;&lt;br style=&quot;font-size: 13px;&quot;&gt;&lt;/font&gt;" style="rounded=0;whiteSpace=wrap;html=1;fillColor=#B3B3B3;strokeColor=#36393d;fontSize=13;verticalAlign=middle;labelPosition=center;verticalLabelPosition=middle;align=center;" parent="1" vertex="1">
          <mxGeometry x="1946.5" y="934.25" width="106" height="39" as="geometry" />
        </mxCell>
        <mxCell id="YhO-kmCt9V6vggGE06Bi-169" value="&lt;span style=&quot;color: rgb(0, 0, 0); font-size: 13px;&quot;&gt;激发探究精神&lt;/span&gt;" style="rounded=0;whiteSpace=wrap;html=1;fillColor=#B3B3B3;strokeColor=#36393d;" parent="1" vertex="1">
          <mxGeometry x="2112.5" y="932.75" width="106" height="39" as="geometry" />
        </mxCell>
        <mxCell id="YhO-kmCt9V6vggGE06Bi-172" value="&lt;font color=&quot;#000000&quot;&gt;&lt;span style=&quot;font-size: 15px;&quot;&gt;综合素养提升&lt;/span&gt;&lt;/font&gt;" style="rounded=0;whiteSpace=wrap;html=1;fillColor=#f5f5f5;fontColor=#333333;strokeColor=#000000;" parent="1" vertex="1">
          <mxGeometry x="1876" y="1042" width="265" height="39" as="geometry" />
        </mxCell>
        <mxCell id="0JYKXFtA4jt-9a8Jvdd_-7" value="&lt;span style=&quot;color: rgb(0, 0, 0);&quot;&gt;空间性&lt;/span&gt;" style="rounded=0;whiteSpace=wrap;html=1;fillColor=#B3B3B3;strokeColor=#666666;fontSize=14;gradientColor=none;" parent="1" vertex="1">
          <mxGeometry x="1767" y="517" width="106" height="39" as="geometry" />
        </mxCell>
        <mxCell id="0JYKXFtA4jt-9a8Jvdd_-8" value="时间性" style="rounded=0;whiteSpace=wrap;html=1;fillColor=#B3B3B3;strokeColor=#36393d;fontSize=14;" parent="1" vertex="1">
          <mxGeometry x="1961" y="517" width="106" height="39" as="geometry" />
        </mxCell>
        <mxCell id="0JYKXFtA4jt-9a8Jvdd_-9" value="互动性" style="rounded=0;whiteSpace=wrap;html=1;fillColor=#B3B3B3;strokeColor=#36393d;fontSize=14;" parent="1" vertex="1">
          <mxGeometry x="2154" y="517" width="106" height="39" as="geometry" />
        </mxCell>
        <mxCell id="0JYKXFtA4jt-9a8Jvdd_-10" value="&lt;span style=&quot;color: rgb(0, 0, 0); font-size: 13px;&quot;&gt;自由探索地理空间&lt;/span&gt;" style="rounded=1;whiteSpace=wrap;html=1;fillColor=#F5F5F5;strokeColor=#36393d;fontSize=13;" parent="1" vertex="1">
          <mxGeometry x="1764" y="595" width="107" height="41" as="geometry" />
        </mxCell>
        <mxCell id="0JYKXFtA4jt-9a8Jvdd_-11" value="&lt;span style=&quot;color: rgb(0, 0, 0); font-size: 13px;&quot;&gt;模拟动态地理现象&lt;/span&gt;" style="rounded=1;whiteSpace=wrap;html=1;fillColor=#F5F5F5;fontColor=#333333;strokeColor=#000000;fontSize=13;" parent="1" vertex="1">
          <mxGeometry x="1964.5" y="596" width="107.5" height="41" as="geometry" />
        </mxCell>
        <mxCell id="0JYKXFtA4jt-9a8Jvdd_-12" value="&lt;span style=&quot;color: rgb(0, 0, 0); font-size: 13px;&quot;&gt;增强学生参与感&lt;/span&gt;" style="rounded=1;whiteSpace=wrap;html=1;fillColor=#F5F5F5;fontColor=#333333;strokeColor=#000000;fontSize=13;" parent="1" vertex="1">
          <mxGeometry x="2151" y="596" width="107" height="41" as="geometry" />
        </mxCell>
        <mxCell id="0JYKXFtA4jt-9a8Jvdd_-18" value="" style="endArrow=classic;html=1;rounded=0;dashed=1;strokeWidth=2;strokeColor=#999999;" parent="1" edge="1">
          <mxGeometry width="50" height="50" relative="1" as="geometry">
            <mxPoint x="1813.25" y="555" as="sourcePoint" />
            <mxPoint x="1813.25" y="594" as="targetPoint" />
          </mxGeometry>
        </mxCell>
        <mxCell id="0JYKXFtA4jt-9a8Jvdd_-19" value="" style="endArrow=classic;html=1;rounded=0;dashed=1;strokeWidth=2;strokeColor=#999999;" parent="1" edge="1">
          <mxGeometry width="50" height="50" relative="1" as="geometry">
            <mxPoint x="2013.75" y="556" as="sourcePoint" />
            <mxPoint x="2013.75" y="595" as="targetPoint" />
          </mxGeometry>
        </mxCell>
        <mxCell id="0JYKXFtA4jt-9a8Jvdd_-20" value="" style="endArrow=classic;html=1;rounded=0;strokeColor=#999999;strokeWidth=2;dashed=1;" parent="1" edge="1">
          <mxGeometry width="50" height="50" relative="1" as="geometry">
            <mxPoint x="2212.75" y="556" as="sourcePoint" />
            <mxPoint x="2212.75" y="595" as="targetPoint" />
          </mxGeometry>
        </mxCell>
        <mxCell id="0JYKXFtA4jt-9a8Jvdd_-24" value="" style="edgeStyle=elbowEdgeStyle;elbow=horizontal;endArrow=classic;html=1;curved=0;rounded=0;endSize=8;startSize=8;exitX=0;exitY=0.5;exitDx=0;exitDy=0;dashed=1;strokeColor=#999999;strokeWidth=2;entryX=0;entryY=0.5;entryDx=0;entryDy=0;" parent="1" source="Oh1gPlp_NcjatVWEgPo7-1" target="Oh1gPlp_NcjatVWEgPo7-2" edge="1">
          <mxGeometry width="50" height="50" relative="1" as="geometry">
            <mxPoint x="1747.4979999999998" y="552.8760000000001" as="sourcePoint" />
            <mxPoint x="1741" y="772.13" as="targetPoint" />
            <Array as="points">
              <mxPoint x="1712.47" y="575.39" />
            </Array>
          </mxGeometry>
        </mxCell>
        <mxCell id="0JYKXFtA4jt-9a8Jvdd_-25" value="" style="edgeStyle=elbowEdgeStyle;elbow=horizontal;endArrow=classic;html=1;curved=0;rounded=0;endSize=8;startSize=8;exitX=1;exitY=0.5;exitDx=0;exitDy=0;entryX=1;entryY=0.5;entryDx=0;entryDy=0;dashed=1;strokeColor=#999999;strokeWidth=2;" parent="1" source="Oh1gPlp_NcjatVWEgPo7-1" target="Oh1gPlp_NcjatVWEgPo7-2" edge="1">
          <mxGeometry width="50" height="50" relative="1" as="geometry">
            <mxPoint x="2271.5280000000002" y="511.9960000000003" as="sourcePoint" />
            <mxPoint x="2252.0000000000005" y="717.4999999999998" as="targetPoint" />
            <Array as="points">
              <mxPoint x="2303.5280000000002" y="569.9960000000003" />
            </Array>
          </mxGeometry>
        </mxCell>
        <mxCell id="Oh1gPlp_NcjatVWEgPo7-3" value="" style="shape=singleArrow;direction=south;whiteSpace=wrap;html=1;arrowWidth=0.3866678873697917;arrowSize=0.42548953785615806;fillColor=#f5f5f5;fontColor=#333333;strokeColor=#666666;" parent="1" vertex="1">
          <mxGeometry x="1988" y="868" width="41" height="41" as="geometry" />
        </mxCell>
        <mxCell id="Oh1gPlp_NcjatVWEgPo7-4" value="" style="shape=singleArrow;direction=south;whiteSpace=wrap;html=1;arrowWidth=0.3866678873697917;arrowSize=0.42548953785615806;fillColor=#f5f5f5;fontColor=#333333;strokeColor=#666666;" parent="1" vertex="1">
          <mxGeometry x="1988" y="998" width="41" height="41" as="geometry" />
        </mxCell>
      </root>
    </mxGraphModel>
  </diagram>
</mxfile>
